<svg xmlns="http://www.w3.org/2000/svg" xmlns:xlink="http://www.w3.org/1999/xlink" version="1.1" id="Layer_1" x="0px" y="0px" width="100%" viewBox="0 0 512 512" enable-background="new 0 0 512 512" xml:space="preserve">
<path fill="#D80027" opacity="1.000000" stroke="none" d=" M513.000000,87.000000   C513.000000,200.022018 513.000000,313.044037 512.531372,426.533020   C458.316895,427.000061 404.571075,426.993134 350.825287,427.019745   C348.008545,427.021149 345.191925,427.306915 342.323364,426.978668   C342.264313,313.053589 342.257111,199.610107 342.304382,86.091156   C342.358826,86.015678 342.534393,86.077530 342.923218,86.302948   C345.793091,86.685562 348.274048,86.978737 350.755157,86.979942   C404.836761,87.006203 458.918396,86.999985 513.000000,87.000000  z"/>
<path fill="#0052B4" opacity="1.000000" stroke="none" d=" M1.000000,427.000000   C1.000000,313.977997 1.000000,200.955978 1.468657,87.466980   C58.239258,87.017487 114.541199,87.034973 170.910645,87.513199   C171.235184,95.765274 171.712234,103.556488 171.716003,111.347939   C171.765869,214.620148 171.754227,317.892395 171.711563,421.164612   C171.710770,423.092529 171.145142,425.020172 170.384399,426.960449   C113.617165,426.981995 57.308582,426.990997 1.000000,427.000000  z"/>
<path fill="#3C79C3" opacity="1.000000" stroke="none" d=" M1.000000,86.250000   C57.357666,86.010460 113.715332,86.020920 170.527008,86.325462   C170.981033,86.619553 170.843140,87.052460 170.843140,87.052460   C114.541199,87.034973 58.239258,87.017487 1.468657,87.000000   C1.000000,87.000000 1.000000,86.500000 1.000000,86.250000  z"/>
<path fill="#3C79C3" opacity="1.000000" stroke="none" d=" M171.002090,427.834229   C154.380569,427.889496 137.759079,427.982605 121.137535,427.992401   C81.404144,428.015839 41.670723,428.000000 1.468657,428.000000   C1.000000,428.000000 1.000000,427.500000 1.000000,427.250000   C57.308582,426.990997 113.617165,426.981995 170.453354,427.176819   C170.980957,427.380615 171.002090,427.834229 171.002090,427.834229  z"/>
<path fill="#F0F0F0" opacity="1.000000" stroke="none" d=" M342.323364,426.978668   C342.375244,427.460266 342.105194,427.551178 342.084351,427.692139   C324.770996,427.888733 307.478485,427.983185 290.185913,427.992157   C250.767731,428.012634 211.349518,427.991180 171.466705,427.910492   C171.002090,427.834229 170.980957,427.380615 170.912003,427.164276   C171.145142,425.020172 171.710770,423.092529 171.711563,421.164612   C171.754227,317.892395 171.765869,214.620148 171.716003,111.347939   C171.712234,103.556488 171.235184,95.765274 170.910645,87.513199   C170.843140,87.052460 170.981033,86.619553 170.991547,86.392670   C187.311996,86.110535 203.621902,86.015625 219.931854,86.007820   C260.384155,85.988464 300.836456,86.008896 341.769348,86.089989   C342.257111,199.610107 342.264313,313.053589 342.323364,426.978668  z"/>
</svg>
