<svg xmlns="http://www.w3.org/2000/svg" xmlns:xlink="http://www.w3.org/1999/xlink" version="1.1" id="Layer_1" x="0px" y="0px" width="100%" viewBox="0 0 512 512" enable-background="new 0 0 512 512" xml:space="preserve">
<path fill="#F0F0F0" opacity="1.000000" stroke="none" d=" M225.000000,1.000000   C246.020889,1.000000 267.041779,1.000000 288.217712,1.361353   C290.706879,2.149500 293.042236,2.570121 295.375061,3.004072   C312.883911,6.261047 330.221100,10.165862 346.559265,16.982094   C346.172333,18.958256 346.029694,20.616798 346.029602,22.275347   C346.019440,178.824722 346.018921,335.374115 346.034515,491.923492   C346.034698,493.913635 346.250732,495.903748 345.948975,497.942322   C327.729584,504.020935 309.780304,509.422180 290.921844,511.080048   C290.230316,511.140869 289.638367,512.334412 289.000000,513.000000   C267.979095,513.000000 246.958206,513.000000 225.782288,512.639282   C221.886856,511.518799 218.164154,510.654694 214.403015,510.017242   C198.245041,507.278625 182.437363,503.264099 167.460938,496.954468   C167.835205,495.475464 167.971634,494.315735 167.971710,493.156006   C167.981201,335.927490 167.983414,178.698990 167.943085,21.470484   C167.942688,19.912542 167.373367,18.354748 167.270111,16.492317   C185.826477,10.311622 204.188080,4.469284 223.572723,2.902877   C224.096329,2.860567 224.526337,1.660288 225.000000,1.000000  z"/>
<path fill="#0052B4" opacity="1.000000" stroke="none" d=" M167.069656,16.796885   C167.373367,18.354748 167.942688,19.912542 167.943085,21.470484   C167.983414,178.698990 167.981201,335.927490 167.971710,493.156006   C167.971634,494.315735 167.835205,495.475464 167.086227,496.833069   C152.850662,490.473816 138.724228,484.855042 125.889763,477.098480   C112.776634,469.173523 100.641609,459.515472 88.604622,449.953644   C73.662216,438.083893 61.223751,423.714661 49.880413,408.400116   C35.230762,388.621674 23.701847,367.164612 15.498441,343.967926   C9.416766,326.770813 4.805522,309.195526 2.873082,290.987579   C2.796595,290.266907 1.648687,289.659943 0.999999,289.000000   C1.000000,267.979095 1.000000,246.958206 1.416628,225.563583   C2.231297,223.013947 2.654681,220.842346 3.023496,218.661499   C7.115496,194.464966 13.785544,171.009903 24.104221,148.728561   C34.939320,125.332100 49.242123,104.087486 66.573479,85.050407   C79.831955,70.487053 94.640335,57.586273 110.950241,46.364872   C128.526871,34.271942 147.359924,24.747673 167.069656,16.796885  z"/>
<path fill="#D80027" opacity="1.000000" stroke="none" d=" M346.366028,497.893890   C346.250732,495.903748 346.034698,493.913635 346.034515,491.923492   C346.018921,335.374115 346.019440,178.824722 346.029602,22.275347   C346.029694,20.616798 346.172333,18.958256 346.695923,17.350075   C361.130890,24.273005 375.497955,30.476997 389.026367,38.158028   C416.750519,53.898914 439.825531,75.326462 459.447357,100.247673   C472.704224,117.084877 483.811096,135.383347 492.185822,155.301025   C501.432220,177.291931 508.372284,199.825638 511.086487,223.588348   C511.185364,224.453781 512.338318,225.198837 513.000000,226.000000   C513.000000,246.687561 513.000000,267.375122 512.584229,288.405670   C511.432831,293.018280 510.793671,297.307129 509.946167,301.554413   C504.287415,329.912384 495.786926,357.331055 480.804871,382.236420   C472.906311,395.366577 464.513367,408.372925 454.851471,420.218048   C445.912231,431.177277 435.197357,440.739441 424.879974,450.510895   C410.407593,464.217529 393.844971,475.107880 376.209595,484.253540   C366.511932,489.282745 356.329773,493.377716 346.366028,497.893890  z"/>
</svg>
